<!DOCTYPE svg PUBLIC "-//W3C//DTD SVG 20010904//EN" "http://www.w3.org/TR/2001/REC-SVG-20010904/DTD/svg10.dtd">
<svg version="1.0" xmlns="http://www.w3.org/2000/svg" width="236px" height="241px" viewBox="0 0 2360 2410" preserveAspectRatio="xMidYMid meet">
<g id="layer101" fill="#151515" stroke="none">
 <path d="M0 1205 l0 -1205 1180 0 1180 0 0 1205 0 1205 -1180 0 -1180 0 0 -1205z"/>
 </g>
<g id="layer102" fill="#fcfcfc" stroke="none">
 <path d="M0 1205 l0 -1205 1180 0 1180 0 0 1205 0 1205 -1180 0 -1180 0 0 -1205z m1137 1081 c28 -13 76 -40 107 -60 31 -20 58 -36 61 -36 5 0 297 -173 430 -255 55 -34 171 -104 259 -156 255 -151 255 -151 173 -313 -31 -61 -76 -145 -100 -186 -24 -41 -79 -136 -122 -210 -43 -74 -138 -238 -210 -365 -145 -252 -236 -400 -264 -428 -27 -28 -51 -24 -113 17 -53 35 -60 38 -107 31 -50 -7 -50 -7 -97 -83 -56 -92 -82 -122 -104 -122 -24 0 -94 49 -185 131 -44 39 -114 102 -155 139 -41 37 -115 101 -165 142 -177 149 -361 325 -385 372 -24 44 -24 45 -7 82 10 20 45 74 78 121 32 46 59 85 59 88 0 3 23 42 52 88 28 45 79 134 113 197 124 233 260 469 350 610 90 139 127 184 170 208 34 19 106 14 162 -12z"/>
 <path d="M985 2259 c-50 -26 -237 -323 -450 -714 -122 -225 -240 -423 -291 -490 l-23 -30 43 -2 c23 -1 70 -13 104 -27 34 -14 63 -26 66 -26 2 0 19 24 37 53 18 28 62 99 99 157 36 58 104 170 150 250 152 264 271 464 333 560 33 52 76 118 94 147 18 28 36 58 39 67 14 36 -152 81 -201 55z"/>
 <path d="M1162 2087 c-82 -122 -172 -271 -379 -626 -85 -145 -163 -276 -174 -292 -10 -15 -46 -72 -79 -126 -47 -77 -57 -100 -47 -110 6 -6 50 -35 97 -63 47 -29 135 -86 195 -128 61 -42 193 -132 295 -200 102 -69 222 -151 267 -183 44 -33 88 -59 95 -59 8 0 28 21 45 48 56 86 169 275 238 397 70 124 124 217 255 440 112 189 211 385 208 409 -2 14 -34 41 -93 79 -119 77 -475 297 -480 297 -3 0 -34 18 -69 40 -36 21 -119 71 -185 109 l-121 70 -68 -102z"/>
 <path d="M191 967 c-6 -6 -11 -17 -11 -24 0 -22 121 -142 319 -317 482 -424 520 -456 548 -456 15 0 33 20 62 66 23 37 40 68 39 70 -2 1 -29 -6 -61 -17 -56 -19 -59 -19 -81 -2 -22 17 -309 268 -386 337 -86 77 -327 284 -370 318 -35 27 -50 34 -59 25z"/>
 <path d="M318 938 c26 -24 77 -68 112 -98 36 -30 85 -74 110 -96 25 -23 145 -130 268 -237 208 -183 225 -195 249 -186 33 12 103 28 156 35 22 2 42 6 44 8 4 4 -75 59 -246 173 -79 52 -172 115 -205 138 -106 75 -419 273 -458 289 -21 9 -47 16 -58 16 -17 0 -11 -8 28 -42z"/>
 </g>

</svg>