<!DOCTYPE svg PUBLIC "-//W3C//DTD SVG 20010904//EN" "http://www.w3.org/TR/2001/REC-SVG-20010904/DTD/svg10.dtd">
<svg version="1.0" xmlns="http://www.w3.org/2000/svg" width="552px" height="598px" viewBox="0 0 5520 5980" preserveAspectRatio="xMidYMid meet">
<g id="layer101" fill="#000000" stroke="none">
 <path d="M1363 5928 c42 -42 58 -69 79 -130 15 -43 26 -78 25 -78 -1 0 -36 9 -77 20 -41 11 -108 20 -149 20 l-73 0 5 33 c3 17 9 53 12 78 l7 46 -55 -8 c-86 -11 -111 -31 -101 -81 25 -117 62 -203 91 -212 10 -2 33 -7 51 -11 27 -6 32 -11 32 -35 0 -15 6 -32 13 -38 6 -5 57 -12 112 -15 66 -3 145 -16 233 -38 l132 -33 0 -78 c0 -112 15 -169 81 -298 32 -63 61 -132 65 -153 6 -35 5 -38 -29 -52 -54 -22 -97 -5 -185 77 -42 39 -99 82 -127 94 -30 14 -112 33 -200 48 -184 30 -190 35 -164 145 15 68 -1 100 -82 167 -63 51 -77 58 -124 62 -45 4 -61 0 -99 -22 -25 -15 -51 -36 -57 -48 -10 -19 -9 -20 12 -14 57 15 98 17 138 6 34 -9 45 -18 57 -45 26 -63 12 -185 -24 -203 -48 -25 -70 -23 -108 10 -46 40 -77 104 -63 130 18 33 -8 18 -55 -32 -48 -51 -56 -81 -37 -133 9 -24 9 -24 -67 -31 -42 -4 -98 -9 -124 -13 l-48 -6 0 81 c0 117 -14 118 -79 7 -66 -113 -53 -158 65 -216 l65 -32 132 4 c282 8 433 -1 466 -29 14 -12 26 -49 41 -122 32 -155 54 -197 135 -256 180 -131 205 -161 205 -246 0 -121 -112 -220 -338 -297 l-64 -22 -46 40 c-26 21 -73 66 -104 99 -50 52 -58 66 -58 99 0 49 -19 76 -54 76 -62 0 -116 -76 -124 -172 -3 -30 3 -108 13 -174 16 -104 17 -126 5 -175 -26 -112 -25 -147 6 -199 33 -57 196 -223 241 -247 18 -9 70 -30 116 -46 46 -17 94 -40 106 -51 37 -34 28 -69 -71 -283 -50 -107 -51 -111 -49 -197 1 -47 -3 -109 -9 -135 -15 -70 -123 -278 -181 -352 -71 -89 -137 -137 -352 -254 -219 -120 -258 -151 -280 -226 -19 -62 -16 -72 23 -96 17 -9 30 -21 30 -26 0 -4 -32 -57 -72 -117 -94 -143 -119 -197 -173 -388 -51 -175 -68 -301 -44 -316 19 -12 46 -11 93 2 69 19 87 48 137 218 l44 155 7 -108 c5 -87 11 -118 33 -161 37 -77 77 -117 112 -113 37 4 40 22 42 253 l1 190 55 -112 c38 -79 61 -114 76 -118 48 -16 65 62 54 244 l-7 116 44 -41 c93 -89 153 -86 179 10 l10 36 29 -21 c51 -38 150 -5 150 51 0 31 5 34 80 45 25 4 60 14 78 22 l32 15 0 80 c0 90 18 138 51 138 11 0 52 14 91 31 54 24 78 29 107 24 56 -9 65 7 57 108 -3 45 -9 99 -12 120 l-6 39 33 -18 c21 -10 58 -18 96 -18 55 -1 66 2 90 26 31 32 34 70 13 160 -13 55 -13 58 13 110 15 29 27 64 27 76 0 45 29 81 90 112 33 16 64 39 70 49 5 11 21 74 34 140 24 118 30 134 90 220 38 54 44 123 22 225 -10 42 -15 80 -11 86 19 31 93 -1 175 -74 19 -17 75 -54 124 -81 97 -54 176 -120 220 -183 31 -46 51 -56 155 -77 90 -19 185 -68 271 -140 36 -30 106 -88 156 -128 51 -43 103 -95 121 -123 38 -60 115 -254 143 -361 40 -148 80 -232 139 -290 49 -48 86 -71 97 -61 2 2 7 43 10 91 4 47 11 84 15 81 12 -7 93 -134 120 -186 29 -56 48 -185 49 -323 0 -60 5 -139 10 -175 22 -143 40 -404 40 -570 0 -156 2 -178 20 -207 37 -61 104 -50 134 21 32 76 50 263 48 477 l-3 207 26 28 25 29 19 -23 c28 -32 89 -224 100 -312 5 -41 12 -169 15 -285 8 -249 21 -432 36 -471 14 -36 26 -44 68 -44 29 0 35 5 52 43 49 112 82 539 56 714 -9 57 -16 115 -16 130 0 24 2 25 14 13 26 -27 138 -303 158 -390 33 -137 98 -330 135 -398 44 -80 74 -95 114 -56 38 36 45 91 25 190 -17 85 -85 307 -118 389 -12 28 -31 80 -44 117 -22 66 -22 68 -4 68 34 0 84 -56 134 -150 61 -117 98 -160 137 -160 32 0 59 39 59 84 0 26 -52 141 -104 229 l-28 47 25 0 c59 0 93 -26 127 -94 11 -22 39 -44 95 -74 44 -24 92 -46 107 -49 25 -5 30 -1 44 32 18 43 14 52 -67 141 -27 30 -49 60 -49 68 0 24 27 37 100 49 67 10 70 12 70 39 0 15 -11 58 -25 94 -23 61 -24 69 -10 90 10 15 21 21 35 17 52 -14 -3 110 -76 171 -48 40 -79 89 -70 112 4 9 21 14 51 14 39 0 45 3 45 21 0 11 -11 35 -25 53 -29 38 -25 46 26 46 21 0 47 8 60 18 22 18 22 21 10 95 -11 70 -11 80 8 123 40 91 20 150 -65 191 -76 37 -88 57 -51 89 15 13 34 24 41 24 31 0 38 27 18 72 -10 24 -25 68 -32 98 -15 66 -74 193 -127 275 -35 54 -66 87 -164 177 -16 14 -29 34 -29 43 0 9 19 34 41 56 39 38 41 43 35 81 -4 22 -31 93 -60 157 -30 64 -66 151 -81 193 -26 73 -33 82 -140 187 -81 79 -128 117 -167 134 -40 18 -63 37 -91 75 -20 28 -55 64 -79 79 -39 26 -50 28 -187 34 -198 8 -261 31 -301 108 -22 44 -50 57 -100 47 -24 -4 -33 -1 -45 17 -8 12 -48 40 -89 62 l-75 39 -58 -13 c-32 -8 -73 -14 -92 -15 -31 -1 -35 3 -48 38 -15 45 -40 76 -60 76 -28 0 -80 -34 -145 -96 -36 -35 -73 -64 -81 -64 -19 0 -45 56 -69 144 -31 118 -27 132 45 199 67 64 82 73 203 127 44 20 105 55 135 77 30 22 99 59 154 83 183 79 520 246 554 275 19 16 50 54 69 85 19 30 50 72 69 93 61 68 40 143 -45 156 l-37 6 -6 65 c-7 71 -35 145 -66 173 -11 9 -65 29 -119 43 -77 20 -112 24 -159 19 -52 -5 -65 -3 -87 14 -36 28 -65 26 -117 -9 -49 -32 -71 -27 -71 15 0 29 -51 48 -116 43 l-44 -3 0 38 c0 45 -15 54 -64 37 -37 -12 -69 -38 -102 -84 -20 -28 -21 -28 -47 -11 -15 9 -40 40 -57 67 -31 50 -32 50 -75 46 -26 -3 -73 -22 -115 -47 -70 -40 -74 -41 -166 -41 l-93 0 -26 -37 c-14 -21 -25 -45 -25 -55 0 -9 -9 -22 -19 -28 -30 -15 -134 -12 -188 6 l-48 16 -33 -38 c-18 -21 -60 -78 -93 -126 -34 -49 -66 -87 -72 -85 -17 5 -44 92 -56 176 -6 48 -16 81 -28 92 -28 28 -113 40 -284 40 l-157 0 -11 77 c-17 112 -26 122 -110 122 -60 0 -74 4 -100 26 -17 14 -36 43 -43 65 -6 22 -24 51 -40 64 -32 27 -115 55 -164 55 l-33 0 52 -52z"/>
 </g>

</svg>