<?xml version="1.0" encoding="utf-8"?>
<!-- Generator: Adobe Illustrator 23.0.3, SVG Export Plug-In . SVG Version: 6.00 Build 0)  -->
<svg version="1.1" id="Layer_1" xmlns="http://www.w3.org/2000/svg" xmlns:xlink="http://www.w3.org/1999/xlink" x="0px" y="0px"
	 viewBox="0 0 512 512" style="enable-background:new 0 0 512 512;" xml:space="preserve">
<style type="text/css">
	.st0{fill:#006D21;}
	.st1{fill:#ECECF1;}
	.st2{fill:#009431;}
	.st3{fill:#FF0031;}
</style>
<path class="st0" d="M116,10v412H96c-22.1,0-40,17.9-40,40V70C56,36.9,82.9,10,116,10z"/>
<path class="st1" d="M456,422v60c0,11.1-8.9,20-20,20H96c-22.1,0-40-17.9-40-40c0-22.1,17.9-40,40-40H456z"/>
<path class="st2" d="M456,30v392H116V10h320C447.1,10,456,18.9,456,30z"/>
<path class="st3" d="M286,106c44.1,0,80,35.9,80,80s-80,140-80,140s-80-95.9-80-140S241.9,106,286,106z"/>
<path class="st1" d="M316,186c0,16.6-13.4,30-30,30s-30-13.4-30-30s13.4-30,30-30S316,169.4,316,186z"/>
<path d="M436,0H116C77.4,0,46,31.4,46,70v77c0,5.5,4.5,10,10,10s10-4.5,10-10V70c0-24.1,17.2-44.3,40-49v391H96
	c-11.2,0-21.6,3.7-30,10V227c0-5.5-4.5-10-10-10s-10,4.5-10,10v235c0,27.6,22.4,50,50,50h340c16.5,0,30-13.5,30-30
	c0-17.7,0-436.1,0-452C466,13.5,452.5,0,436,0z M126,20h310c5.5,0,10,4.5,10,10v382H126V20z M446,482c0,5.5-4.5,10-10,10H96
	c-16.6,0-30-13.4-30-30c0-16.5,13.5-30,30-30h350V482z"/>
<path d="M376,186c0-49.6-40.4-90-90-90s-90,40.4-90,90c0,36.8,46.7,100.8,69.2,130H216c-5.5,0-10,4.5-10,10s4.5,10,10,10h140
	c5.5,0,10-4.5,10-10s-4.5-10-10-10h-49.2C329.3,286.9,376,222.8,376,186z M216,186c0-38.6,31.4-70,70-70s70,31.4,70,70
	c0,29.8-45.1,92.8-70,124.1C261.1,278.8,216,215.8,216,186z"/>
<path d="M326,186c0-22.1-17.9-40-40-40s-40,17.9-40,40s17.9,40,40,40S326,208.1,326,186z M266,186c0-11,9-20,20-20s20,9,20,20
	s-9,20-20,20S266,197,266,186z"/>
<path d="M106,462c0,5.5,4.5,10,10,10h280c5.5,0,10-4.5,10-10s-4.5-10-10-10H116C110.5,452,106,456.5,106,462z"/>
<path d="M56,197c5.5,0,10-4.5,10-10s-4.5-10-10-10s-10,4.5-10,10S50.5,197,56,197z"/>
</svg>
