<?xml version="1.0" encoding="utf-8"?>
<!-- Generator: Adobe Illustrator 23.0.3, SVG Export Plug-In . SVG Version: 6.00 Build 0)  -->
<svg version="1.1" id="Layer_1" xmlns="http://www.w3.org/2000/svg" xmlns:xlink="http://www.w3.org/1999/xlink" x="0px" y="0px"
	 viewBox="0 0 275 266" style="enable-background:new 0 0 275 266;" xml:space="preserve">
<style type="text/css">
	.st0{fill:#212121;}
	.st1{fill:#FDFDFD;}
</style>
<g>
	<g id="layer101">
		<path class="st0" d="M0,133V0h137.5H275v133v133H137.5H0V133z"/>
	</g>
	<g id="layer102">
		<path class="st1" d="M0,133V0h137.5H275v133v133H137.5H0V133z M196.9,217.6c0.8-1,2.4-1.2,5.1-0.9c3.6,0.5,4,0.3,4-1.5
			c0-1.1-0.5-2.4-1.1-2.8c-0.8-0.5-0.8-0.8,0-1.3c0.8-0.5,0.3-2-1.5-4.7c-1.5-2.1-4.4-7.5-6.5-11.9c-2.1-4.4-4.8-9.5-6-11.4
			l-2.3-3.3l2.5,0.7c1.3,0.4,7.1,2.9,12.9,5.7c10.4,5,17,7,17,5.1c0-1.8-8.1-10.3-11.5-12.1c-1.7-0.9-5.7-4.5-8.7-7.9
			s-7.7-7.9-10.4-10.1c-9.5-7.5-19.1-17.8-20.4-21.8c-0.7-2.1-2.8-5.7-4.6-7.9c-1.8-2.2-5.8-9.4-9-16c-5-10.3-6.9-13-12.9-19
			c-4.4-4.3-10-8.5-14.6-11c-6.2-3.3-7.8-4.8-9.9-8.7c-1.3-2.6-3.5-5.2-4.8-5.7c-1.8-0.9-2.1-1.6-1.6-3.8c1.2-5.1,5-9.1,9.4-9.8
			c3.4-0.6,4-1.1,4-3.1c0-1.3-0.8-3.1-1.7-3.9c-8.6-7.4-10.4-8.5-14.7-9.5c-5.2-1.1-9.3-0.7-17,1.7c-10.1,3.2-17.7,13.8-16.8,23.5
			c0.3,3.8-0.1,5.7-2.2,9.3c-2.4,4-2.6,5.1-2,10.9c0.6,5.9,0.5,6.4-1.5,7.1c-2.5,0.8-6.1,7.3-6.1,11.1c0,1.5,0.9,6.3,2.1,10.6
			c1.9,7,2.9,8.7,10.3,17.5c5.3,6.2,9.7,10.5,12.6,12l4.5,2.4l0.3-2.5c0.2-1.4,0.5-2.6,0.8-2.6c1.5,0,5.7,6.5,8.6,13.3
			c2.2,5.3,4.5,9,7,11.3c2.1,1.9,3.8,3.7,3.8,4.1c0,1.9-6.7,10.3-8.2,10.3c-2.7,0-4.8,1.1-4.8,2.6c0,0.8-1,1.4-2.3,1.4
			c-4,0-6.1,2.3-5.2,5.6l0.8,2.9l0.6-2.5c0.6-1.9,1.4-2.5,3.7-2.5c1.6,0,3.5-0.4,4.2-0.9c2.1-1.3,3.6,0.8,2.3,3.2
			c-0.6,1.1-1.1,3.6-1.1,5.4l0.1,3.3l1.4-3.2c0.8-1.8,2.1-3.3,2.9-3.3c0.8,0,2.2-0.3,3.2-0.7c1.4-0.5,1.6-0.3,1.1,1.3
			c-0.6,1.5-0.3,1.5,1.3-0.5l2-2.3v2.8c0.1,2.4,0.2,2.6,1,1.2c0.7-1.1,0.7-2.6,0-4.3c-0.9-2.3-0.8-2.6,0.7-2.3
			c1.4,0.2,1.9,1.7,2.4,6.8c0.3,4,0.1,7.1-0.5,8c-1,1.3-0.9,1.3,0.7,0.1c3.4-2.7,3.8-4.7,2.6-13.8c-1-7.5-0.9-9.1,0.4-11.7
			c0.9-1.7,2.9-6.1,4.6-9.8l2.9-6.7l3.1,1.5c1.7,0.9,3.1,2,3.1,2.5c0,0.6,0.5,0.7,1,0.4c0.6-0.3,1.3,0.1,1.6,1
			c0.6,1.4,0.9,1.2,2.4-0.9c1.6-2.5,1.7-2.5,3.2-0.9c0.9,1,7.2,10.6,14.1,21.4c18.2,28.5,20.5,31.5,22.9,29.1
			c0.7-0.7,2.7-0.2,6.1,1.3C194.5,219.3,195.4,219.4,196.9,217.6z"/>
		<path class="st1" d="M110,185c0-0.7,0.3-1,0.7-0.7c0.3,0.4,0.3,1,0,1.4C110.3,186,110,185.7,110,185z"/>
		<path class="st1" d="M115.5,176.4c1.4-2,2.5-4.3,2.5-5c0-0.8,0.5-1.4,1.1-1.4c2.2,0-1.9,9.3-4.4,9.8
			C113.2,180.1,113.3,179.6,115.5,176.4z"/>
	</g>
</g>
</svg>
